<svg version="1.1" xmlns="http://www.w3.org/2000/svg" width="280" height="93" enable-background="new 0 0 280 93" xml:space="preserve" style=""><rect id="backgroundrect" width="100%" height="100%" x="0" y="0" fill="none" stroke="none"/><g class="currentLayer" style=""><title>Layer 1</title><path fill-rule="evenodd" clip-rule="evenodd" d="M46.6 8.1C45.4 3.3 41.6-0.1 35.5 0c-0.3 0-0.7 0.1-1 0.1 -0.6 0.2-1.3 0.3-1.9 0.5 -2.9 1.1-5.3 3.5-6.3 6.6 -0.6 1.7-0.5 4.1-0.5 6.4v17.8c0 2.1-0.1 4.3 0.4 5.9 0.8 2.8 2.5 4.8 4.7 6.2 1.3 0.8 3.9 1.9 6.3 1.5 4.3-0.7 6.6-2.4 8.5-5.5 1.2-2.1 1.2-5.1 1.2-8.5v-17C46.9 12 47 9.7 46.6 8.1zM36.6 38.2c-1 0.2-1.9-0.2-2.5-0.5 -2.4-1.4-1.9-4.2-1.9-7.9V15.4c0-2-0.3-5.1 0.3-6.6 0.4-0.9 1.2-1.6 2.1-2 0.3-0.1 0.6-0.1 0.9-0.2 2 0 3.1 0.7 3.8 1.9 0.8 1.3 0.4 5.5 0.4 7.6v14.1C39.9 34.5 40.4 37.6 36.6 38.2z" id="svg_1" class="" fill-opacity="1" fill="#f5a32f"/><path fill-rule="evenodd" clip-rule="evenodd" d="M21.1 15.7c-2.3 0-4.6 0-6.9 0 0-2.1 0.3-5.7-0.4-7 -1.4-2.4-5-2.7-6.6-0.2C6.3 9.9 6.7 13.2 6.7 15.4c0 4.7 0 9.5 0 14.2 0 1.9-0.3 5.1 0.3 6.5 1.2 2.7 5 2.9 6.7 0.5 1-1.5 0.6-5.7 0.6-8.2 2.3 0 4.6 0 6.9 0 0 1.6 0 3.3 0 4.9 0 1.2 0.1 2.4-0.2 3.4 -0.6 2.7-2.1 4.7-4 6.2 -0.9 0.7-1.9 1.3-3.1 1.6C7.6 46.7 2.4 42.6 0.7 38.4c-1.1-2.7-0.7-7.3-0.7-10.9 0-4.2 0-8.3 0-12.5 0-2.3-0.2-5 0.3-7 0.6-2.4 2-4.3 3.7-5.7 1-0.8 2.1-1.4 3.4-1.8 1-0.3 2.6-0.6 4-0.4 0.9 0.2 1.7 0.2 2.5 0.4 3.6 1.2 6.2 4.2 7 8.1 0.2 0.8 0.1 1.8 0.1 2.7C21.1 12.8 21.1 14.2 21.1 15.7zM100 15.7c-2.3 0-4.6 0-6.9 0 0-2.1 0.3-5.7-0.4-7 -1.4-2.4-5-2.7-6.6-0.2 -0.9 1.4-0.5 4.7-0.5 7 0 4.7 0 9.5 0 14.2 0 1.9-0.3 5.1 0.3 6.5 1.2 2.7 5 2.9 6.7 0.5 1-1.5 0.6-5.7 0.6-8.2 2.3 0 4.6 0 6.9 0 0 1.6 0 3.1 0 4.7 0 1.3 0 2.6-0.2 3.6 -0.7 2.8-2.2 4.9-4.2 6.4 -0.9 0.7-2 1.2-3.2 1.5 -6.1 1.9-11.2-2.3-12.8-6.4 -1.1-2.7-0.7-7.3-0.7-10.9 0-4.2 0-8.3 0-12.5 0-2.3-0.2-5 0.3-7 0.6-2.4 2-4.3 3.7-5.7 1-0.8 2.1-1.4 3.4-1.8 6.8-2.1 12.2 2.7 13.4 7.6C100.3 10.2 100 13.2 100 15.7zM51.4 0.5c2.5 0 5 0 7.5 0 2.9 9.8 5.8 19.6 8.7 29.4 0 0 0 0 0 0 0-9.8 0-19.6 0-29.4 2.2 0 4.4 0 6.6 0 0 14.7 0 29.3 0 44 -2.4 0-4.8 0-7.1 0 -3-9.4-6-18.7-9.1-28.1 0 0 0 0 0 0 0 9.4 0 18.7 0 28.1 -2.2 0-4.4 0-6.6 0C51.4 29.9 51.4 15.2 51.4 0.5zM104.6 0.5c6.3 0 12.6 0 18.9 0 0 2.2 0 4.4 0 6.7 -4.1 0-8.2 0-12.2 0 0 4 0 8 0 12 3 0 6 0 9 0 0 2.2 0 4.5 0 6.7 -3 0-6 0-8.9 0 0 4 0 8 0 12 4.1 0 8.2 0 12.2 0 0 2.2 0 4.4 0 6.6 -6.3 0-12.6 0-18.9 0C104.6 29.9 104.6 15.2 104.6 0.5zM183.1 0c6.9 0 13.8 0 20.7 0 0 2.2 0 4.4 0 6.7 -2.3 0-4.7 0-7 0 0 12.4 0 24.9 0 37.3 -2.2 0-4.4 0-6.7 0 0-12.4 0-24.9 0-37.3 -2.4 0-4.7 0-7.1 0C183.1 4.4 183.1 2.2 183.1 0zM206.8 0c2.2 0 4.3 0 6.5 0 0 9.6 0 19.2 0 28.8 0 3.9-0.6 6.8 1.9 8.4 0.5 0.3 1.4 0.7 2.5 0.5 4.1-0.7 3.3-5.1 3.3-9.8 0-9.3 0-18.6 0-27.9 2.3 0 4.6 0 7 0 0 8.1 0 16.1 0 24.2 0 2.5 0 5 0 7.5 0 1.5 0.1 3.1-0.2 4.4 -1 4.5-4.8 8.5-10.4 8.4 -5.4-0.1-9.1-3.6-10.2-8 -0.4-1.4-0.3-3.2-0.3-5 0-2.6 0-5.2 0-7.8C206.8 15.8 206.8 7.9 206.8 0zM261.9 0c2.2 0 4.4 0 6.7 0 0 12.4 0 24.9 0 37.3 3.8 0 7.6 0 11.4 0 0 2.2 0 4.4 0 6.6 -6 0-12.1 0-18.1 0C261.9 29.3 261.9 14.7 261.9 0zM181.4 9.1c-0.4-2.2-0.8-3.7-1.8-5.1 -1.3-1.8-3.1-3.1-5.5-3.7 -1.5-0.4-3.5-0.3-5.4-0.3 -2.7 0-5.4 0-8.1 0 0 14.6 0 29.3 0 43.9 2.2 0 4.4 0 6.7 0 0-6.2 0-12.4 0-18.7 2 0 4.3 0.2 6-0.2 4.1-1 7-3.8 8-7.8 0.3-1.3 0.3-2.9 0.3-4.5C181.5 11.5 181.6 10.2 181.4 9.1zM175 15.5c-0.3 1.6-1.4 2.8-3.1 3.1 -0.8 0-1.5 0-2.3 0.1 -0.8 0-1.6 0-2.4 0 0-4 0-7.9 0-11.9 2.9 0 5.7-0.4 7 1.3 0.7 0.9 0.7 2 0.7 3.7C175 13.1 175 14.3 175 15.5zM249 0c-3.1 0-6.1 0-9.2 0 -2.5 14.6-5 29.3-7.5 43.9 2.3 0 4.6 0 6.9 0 0.9-6.2 1.9-12.4 2.8-18.6 1.5 0 3 0 4.5 0 0.9 6.2 1.9 12.3 2.8 18.5 0.2 0.1 1.5 0.1 1.8 0.1 1.7 0 3.5 0 5.2 0C253.9 29.3 251.5 14.7 249 0zM243.1 18.6c0.4-2.8 0.8-5.6 1.2-8.4 0.4 2.8 0.8 5.6 1.2 8.4C244.8 18.6 244 18.6 243.1 18.6zM267.6 58.8c0-2.8-2.1-6.4-5.4-5.1 -1.9 0.8-2.8 4-2 6.6 1.2 3.9 4.3 6.2 7.1 8.5 2.3 1.8 4.1 4.3 5.5 6.9 1.5 2.9 2.1 6.8 0.7 10.3 -1.2 3-3.2 5.1-6.4 6.1 -0.8 0.2-1.5 0.2-2.4 0.4 -1.2 0.2-2.7 0-3.7-0.2 -1.1-0.3-2.1-0.6-3-1.2 -2.7-1.7-4.3-4.4-5.2-8 -0.2-1-0.2-2-0.4-3.1 2.1-0.1 4.2-0.3 6.4-0.4 0 2.7 1.5 5.8 3.4 6.6 0.6 0.2 1.5 0.2 2.2 0.1 2.3-0.6 3.9-3.2 3.1-6.3 -0.7-2.7-2.7-4.6-4.6-6.1 -0.7-0.7-1.4-1.4-2.2-2.1 -2.2-1.8-4.2-4-5.7-6.4 -1.1-1.8-2.4-5.2-1.8-8.4 0.2-1.1 0.3-2.1 0.7-3 1.1-2.9 3.2-5 6.3-6 0.7-0.2 1.5-0.2 2.3-0.4 1-0.2 2.3-0.1 3.2 0.1 1 0.2 1.9 0.5 2.8 0.8 3.4 1.5 5.1 4.7 5.7 9.1C271.9 58 269.7 58.4 267.6 58.8zM40.7 48.6c6.3 0 12.6 0 18.9 0 0 2.2 0 4.4 0 6.7 -4.1 0-8.2 0-12.2 0 0 4 0 8 0 12 3 0 6 0 9 0 0 2.2 0 4.5 0 6.7 -3 0-6 0-8.9 0 0 6.2 0 12.4 0 18.6 -2.2 0-4.4 0-6.7 0C40.7 78 40.7 63.3 40.7 48.6zM75.6 48.6c2.5 0 5 0 7.5 0 2.9 9.8 5.8 19.6 8.7 29.4 0 0 0 0 0 0 0-9.8 0-19.6 0-29.4 2.2 0 4.4 0 6.6 0 0 14.7 0 29.3 0 44 -2.4 0-4.8 0-7.1 0 -3-9.4-6-18.7-9.1-28.1 0 0 0 0 0 0 0 9.4 0 18.7 0 28.1 -2.2 0-4.4 0-6.6 0C75.6 78 75.6 63.3 75.6 48.6zM104.4 48.6c6.3 0 12.6 0 18.9 0 0 2.2 0 4.4 0 6.7 -4.1 0-8.2 0-12.2 0 0 4 0 8 0 12 3 0 6 0 9 0 0 2.2 0 4.5 0 6.7 -3 0-6 0-8.9 0 0 4 0 8 0 12 4.1 0 8.2 0 12.2 0 0 2.2 0 4.4 0 6.6 -6.3 0-12.6 0-18.9 0C104.4 78 104.4 63.3 104.4 48.6zM64.1 48.7c2.2 0 4.4 0 6.7 0 0 14.6 0 29.3 0 43.9 -2.2 0-4.4 0-6.7 0C64.1 78 64.1 63.3 64.1 48.7zM230.4 48.1c6.9 0 13.8 0 20.7 0 0 2.2 0 4.4 0 6.7 -2.3 0-4.7 0-7 0 0 12.4 0 24.9 0 37.3 -2.2 0-4.4 0-6.7 0 0-12.4 0-24.9 0-37.3 -2.3 0-4.7 0-7.1 0C230.4 52.5 230.4 50.3 230.4 48.1zM224.6 70.7c0.4-0.4 0.7-0.7 1.1-1.1 0.9-1.1 1.6-2.4 2.1-3.9 0.4-1.4 0.4-3.2 0.4-5 0-1.5 0.1-3.1-0.1-4.5 -0.9-4.5-3-6.9-7.4-7.9 -2.1-0.5-4.9-0.2-7.3-0.2 -2 0-4 0-6 0 0 14.6 0 29.3 0 43.9 2.2 0 4.4 0 6.7 0 0-6.2 0-12.4 0-18.7 1.3 0 2.6 0 3.9 0 0.2 0 0.4 0 0.6 0 1.5 6.3 3 12.5 4.5 18.8 2.4 0 4.8 0 7.2 0C228.1 85 226.4 77.9 224.6 70.7zM221.6 63.6c-0.5 2.6-2.2 3.2-5.4 3.2 -0.8 0-1.6 0-2.4 0 0-4 0-7.9 0-11.9 2.6 0 5.9-0.4 7 1.1 0.7 0.9 0.8 2.2 0.8 3.9C221.6 61.1 221.6 62.4 221.6 63.6zM194.3 48.1c-3.1 0-6.1 0-9.2 0 -2.5 14.6-5 29.3-7.5 43.9 2.3 0 4.6 0 6.9 0 0.9-6.2 1.9-12.4 2.8-18.6 1.5 0 3 0 4.5 0 0.9 6.2 1.8 12.4 2.8 18.6 2.3 0 4.7 0 7 0C199.2 77.4 196.7 62.8 194.3 48.1zM190.9 66.7c-0.8 0-1.7 0-2.5 0 0.4-2.8 0.8-5.6 1.2-8.4 0.4 2.8 0.8 5.6 1.2 8.3C190.9 66.7 190.9 66.7 190.9 66.7z" id="svg_2" class="" fill="#f5a32f" fill-opacity="1"/></g></svg>