<svg version="1.1" id="Livello_1" xmlns="http://www.w3.org/2000/svg" xmlns:xlink="http://www.w3.org/1999/xlink" x="0px" y="0px"
	 width="280px" height="93px" viewBox="0 0 280 93" enable-background="new 0 0 280 93" xml:space="preserve">
<g>
	<g>
		<path fill-rule="evenodd" clip-rule="evenodd" d="M46.605,8.068C45.4,3.294,41.6-0.052,35.462,0.037
			c-0.326,0.04-0.652,0.079-0.978,0.118c-0.632,0.168-1.264,0.336-1.896,0.504c-2.908,1.147-5.309,3.479-6.283,6.55
			c-0.555,1.747-0.504,4.088-0.504,6.431v17.84c0,2.066-0.128,4.31,0.356,5.927c0.831,2.775,2.464,4.775,4.682,6.165
			c1.278,0.799,3.936,1.915,6.342,1.511c4.313-0.724,6.627-2.356,8.476-5.513c1.231-2.1,1.215-5.098,1.215-8.505v-17.04
			C46.872,12,47.025,9.73,46.605,8.068z M36.648,38.236c-1.029,0.174-1.906-0.194-2.46-0.534c-2.354-1.443-1.867-4.241-1.867-7.912
			V15.447c0-1.997-0.304-5.142,0.326-6.579c0.387-0.886,1.217-1.626,2.133-1.985c0.287-0.069,0.573-0.139,0.86-0.208
			c2.017-0.014,3.089,0.656,3.823,1.897c0.777,1.317,0.444,5.481,0.444,7.616v14.076C39.908,34.503,40.394,37.601,36.648,38.236z"/>
	</g>
</g>
<path fill-rule="evenodd" clip-rule="evenodd" d="M21.119,15.655c-2.292,0-4.584,0-6.875,0c0.017-2.077,0.334-5.669-0.444-6.994
	c-1.431-2.434-5.031-2.729-6.609-0.208C6.286,9.9,6.657,13.152,6.657,15.417c0,4.741,0,9.484,0,14.225c0,1.93-0.308,5.06,0.296,6.46
	c1.15,2.664,5.01,2.911,6.668,0.534c1.031-1.478,0.633-5.687,0.622-8.179c2.292,0,4.584,0,6.875,0c0,1.649,0,3.3,0,4.949
	c0,1.208,0.055,2.445-0.178,3.438c-0.639,2.729-2.054,4.746-3.971,6.194c-0.885,0.668-1.943,1.261-3.112,1.63
	C7.56,46.653,2.402,42.639,0.73,38.384c-1.063-2.706-0.652-7.276-0.652-10.935c0-4.158,0-8.318,0-12.477
	c0-2.344-0.193-5.041,0.296-6.964c0.612-2.404,1.973-4.335,3.675-5.66c0.98-0.763,2.117-1.424,3.438-1.837
	c1.037-0.324,2.617-0.614,4.001-0.385c0.944,0.156,1.701,0.194,2.489,0.445c3.649,1.159,6.187,4.155,7.024,8.149
	c0.167,0.797,0.118,1.756,0.118,2.697C21.119,12.83,21.119,14.242,21.119,15.655z"/>
<path fill-rule="evenodd" clip-rule="evenodd" d="M100.007,15.655c-2.302,0-4.604,0-6.905,0c0.016-2.077,0.333-5.669-0.445-6.994
	c-1.43-2.434-5.03-2.729-6.608-0.208c-0.905,1.447-0.534,4.699-0.534,6.964c0,4.741,0,9.484,0,14.225c0,1.93-0.308,5.06,0.296,6.46
	c1.15,2.664,5.01,2.911,6.668,0.534c1.031-1.478,0.633-5.687,0.623-8.179c2.301,0.01,4.603,0.02,6.905,0.03c0,1.57,0,3.141,0,4.712
	c0,1.29,0.042,2.577-0.208,3.645c-0.663,2.832-2.172,4.917-4.208,6.372c-0.912,0.652-1.979,1.178-3.171,1.542
	c-6.143,1.87-11.245-2.333-12.832-6.373c-1.063-2.706-0.652-7.276-0.652-10.935c0-4.158,0-8.318,0-12.477
	c0-2.344-0.193-5.041,0.296-6.964c0.613-2.404,1.973-4.335,3.675-5.66c0.98-0.763,2.117-1.424,3.437-1.837
	c6.758-2.116,12.163,2.713,13.396,7.616C100.263,10.206,100.011,13.173,100.007,15.655z"/>
<path fill-rule="evenodd" clip-rule="evenodd" d="M51.436,0.541c2.499,0.01,4.999,0.021,7.498,0.03
	c2.904,9.798,5.809,19.599,8.712,29.397c0.01,0,0.02,0,0.03,0c0-9.808,0-19.619,0-29.428c2.212,0,4.426,0,6.638,0
	c0,14.668,0,29.34,0,44.008c-2.38,0-4.762,0-7.142,0c-3.022-9.354-6.046-18.71-9.068-28.064c-0.01,0-0.02,0-0.03,0
	c0,9.354,0,18.71,0,28.064c-2.212,0-4.426,0-6.638,0C51.436,29.881,51.436,15.209,51.436,0.541z"/>
<path fill-rule="evenodd" clip-rule="evenodd" d="M104.601,0.541c6.301,0,12.605,0,18.907,0c0,2.223,0,4.446,0,6.668
	c-4.079,0-8.16,0-12.239,0c0,4,0,8.002,0,12.002c2.983,0,5.967,0,8.95,0c0,2.232,0,4.465,0,6.698c-2.983,0-5.966,0-8.95,0
	c0,4,0,8.002,0,12.002c4.079,0,8.16,0,12.239,0c0,2.212,0,4.425,0,6.638c-6.302,0-12.605,0-18.907,0
	C104.601,29.881,104.601,15.209,104.601,0.541z"/>
<path fill-rule="evenodd" clip-rule="evenodd" d="M183.064,0.008c6.902,0,13.811,0,20.715,0c0,2.223,0,4.446,0,6.667
	c-2.332,0-4.664,0-6.994,0c0,12.426,0,24.855,0,37.281c-2.223,0-4.447,0-6.668,0c0-12.426,0-24.855,0-37.281
	c-2.352-0.01-4.703-0.02-7.053-0.029C183.064,4.434,183.064,2.221,183.064,0.008z"/>
<path fill-rule="evenodd" clip-rule="evenodd" d="M206.771,0.008c2.174,0,4.346,0,6.52,0c0,9.601,0,19.205,0,28.805
	c0,3.867-0.609,6.772,1.867,8.357c0.541,0.347,1.441,0.707,2.459,0.534c4.146-0.706,3.262-5.131,3.262-9.809
	c0-9.294,0-18.592,0-27.887c2.32,0,4.643,0,6.963,0c0,8.07,0,16.142,0,24.212c0,2.489,0,4.979,0,7.468
	c0,1.499,0.1,3.115-0.178,4.386c-0.988,4.527-4.824,8.543-10.402,8.417c-5.443-0.124-9.113-3.562-10.223-8.002
	c-0.354-1.41-0.268-3.242-0.268-4.979c0-2.607,0-5.216,0-7.824C206.771,15.794,206.771,7.9,206.771,0.008z"/>
<path fill-rule="evenodd" clip-rule="evenodd" d="M261.893,0.008c2.223,0,4.445,0,6.668,0c0,12.446,0,24.895,0,37.34
	c3.812,0,7.627,0,11.439,0c0,2.202,0,4.406,0,6.608c-6.035,0-12.072,0-18.107,0C261.893,29.309,261.893,14.656,261.893,0.008z"/>
<path fill-rule="evenodd" clip-rule="evenodd" d="M181.375,9.106c-0.365-2.153-0.791-3.692-1.809-5.127
	c-1.258-1.775-3.125-3.061-5.541-3.675c-1.504-0.382-3.484-0.296-5.365-0.296c-2.695,0-5.393,0-8.09,0c0,14.648,0,29.301,0,43.949
	c2.223,0,4.445,0,6.668,0c0-6.223,0-12.447,0-18.67c1.99,0.004,4.293,0.191,5.986-0.208c4.088-0.962,6.957-3.795,7.973-7.823
	c0.324-1.294,0.266-2.928,0.266-4.534C181.463,11.532,181.551,10.155,181.375,9.106z M174.973,15.507
	c-0.303,1.647-1.436,2.807-3.053,3.141c-0.77,0.02-1.541,0.04-2.311,0.06c-0.789,0-1.58,0-2.371,0c0-3.961,0-7.923,0-11.884
	c2.938-0.016,5.748-0.378,7.023,1.333c0.686,0.921,0.74,2.034,0.74,3.705C174.992,13.077,174.982,14.292,174.973,15.507z"/>
<path fill-rule="evenodd" clip-rule="evenodd" d="M249.002,0.008c-3.053,0-6.105,0-9.158,0c-2.498,14.648-4.998,29.301-7.496,43.949
	c2.311,0,4.623,0,6.934,0c0.938-6.193,1.877-12.388,2.814-18.582c1.492,0,2.984,0,4.477,0c0.928,6.174,1.855,12.349,2.783,18.522
	c0.164,0.142,1.465,0.059,1.809,0.059c1.729,0,3.459,0,5.188,0C253.902,29.309,251.451,14.656,249.002,0.008z M243.133,18.619
	c0.406-2.785,0.811-5.571,1.215-8.357c0.416,2.786,0.83,5.572,1.246,8.357C244.773,18.619,243.953,18.619,243.133,18.619z"/>
<path fill-rule="evenodd" clip-rule="evenodd" d="M267.611,58.805c0.02-2.768-2.1-6.447-5.422-5.068
	c-1.906,0.791-2.787,3.984-1.986,6.608c1.188,3.886,4.287,6.212,7.111,8.477c2.25,1.801,4.119,4.251,5.484,6.934
	c1.459,2.871,2.145,6.767,0.74,10.343c-1.193,3.039-3.168,5.125-6.43,6.104c-0.77,0.23-1.525,0.211-2.432,0.356
	c-1.201,0.191-2.74,0.04-3.734-0.208c-1.102-0.274-2.131-0.63-2.992-1.155c-2.74-1.672-4.297-4.438-5.186-7.972
	c-0.248-0.983-0.217-2.037-0.416-3.111c2.125-0.149,4.248-0.297,6.371-0.445c0,2.728,1.49,5.789,3.439,6.579
	c0.602,0.244,1.512,0.24,2.162,0.06c2.287-0.634,3.928-3.159,3.111-6.343c-0.688-2.679-2.684-4.562-4.562-6.074
	c-0.723-0.701-1.443-1.403-2.164-2.104c-2.189-1.763-4.229-4.003-5.75-6.431c-1.145-1.831-2.393-5.164-1.836-8.416
	c0.184-1.079,0.299-2.114,0.65-3.023c1.141-2.93,3.166-5.034,6.283-5.986c0.732-0.224,1.453-0.217,2.312-0.355
	c1-0.161,2.32-0.058,3.199,0.119c1.002,0.2,1.922,0.463,2.756,0.829c3.432,1.506,5.119,4.729,5.691,9.127
	C271.879,58.034,269.746,58.419,267.611,58.805z"/>
<path fill-rule="evenodd" clip-rule="evenodd" d="M40.678,48.638c6.302,0,12.605,0,18.907,0c0,2.224,0,4.446,0,6.668
	c-4.08,0-8.16,0-12.239,0c0,4.001,0,8.003,0,12.003c2.983,0,5.967,0,8.95,0c0,2.232,0,4.465,0,6.697c-2.983,0-5.967,0-8.95,0
	c0,6.213,0,12.428,0,18.641c-2.223,0-4.445,0-6.668,0C40.678,77.979,40.678,63.307,40.678,48.638z"/>
<path d="M75.618,48.638c2.499,0.011,4.999,0.02,7.498,0.03c2.904,9.799,5.809,19.6,8.713,29.397c0.01,0,0.02,0,0.029,0
	c0-9.809,0-19.619,0-29.428c2.213,0,4.426,0,6.639,0c0,14.669,0,29.341,0,44.009c-2.381,0-4.762,0-7.143,0
	c-3.022-9.354-6.045-18.711-9.068-28.064c-0.01,0-0.02,0-0.03,0c0,9.354,0,18.711,0,28.064c-2.212,0-4.425,0-6.638,0
	C75.618,77.979,75.618,63.307,75.618,48.638z"/>
<path fill-rule="evenodd" clip-rule="evenodd" d="M104.394,48.638c6.301,0,12.605,0,18.907,0c0,2.224,0,4.446,0,6.668
	c-4.08,0-8.161,0-12.24,0c0,4.001,0,8.003,0,12.003c2.983,0,5.967,0,8.95,0c0,2.232,0,4.465,0,6.697c-2.983,0-5.967,0-8.95,0
	c0,4,0,8.002,0,12.003c4.079,0,8.16,0,12.24,0c0,2.211,0,4.425,0,6.638c-6.302,0-12.606,0-18.907,0
	C104.394,77.979,104.394,63.307,104.394,48.638z"/>
<path fill-rule="evenodd" clip-rule="evenodd" d="M64.119,48.698c2.223,0,4.446,0,6.668,0c0,14.647,0,29.3,0,43.948
	c-2.222,0-4.445,0-6.668,0C64.119,77.998,64.119,63.346,64.119,48.698z"/>
<path fill-rule="evenodd" clip-rule="evenodd" d="M230.42,48.106c6.914,0,13.83,0,20.744,0c0,2.222,0,4.444,0,6.667
	c-2.34,0-4.682,0-7.021,0c0,12.426,0,24.855,0,37.281c-2.225,0-4.447,0-6.67,0c0-12.426,0-24.855,0-37.281
	c-2.35-0.01-4.701-0.02-7.053-0.029C230.42,52.531,230.42,50.318,230.42,48.106z"/>
<path fill-rule="evenodd" clip-rule="evenodd" d="M224.553,70.747c0.355-0.365,0.711-0.731,1.066-1.097
	c0.898-1.132,1.633-2.372,2.104-3.941c0.418-1.394,0.355-3.228,0.355-5.038c0-1.52,0.111-3.146-0.146-4.475
	c-0.881-4.511-2.996-6.914-7.41-7.883c-2.082-0.457-4.916-0.208-7.318-0.207c-2.016,0-4.031,0-6.047,0c0,14.647,0,29.3,0,43.948
	c2.223,0,4.445,0,6.668,0c0-6.224,0-12.447,0-18.671c1.285-0.009,2.568-0.02,3.854-0.029c0.188,0,0.375,0,0.562,0
	c1.512,6.262,3.023,12.526,4.533,18.789c2.391,0,4.781,0,7.172,0C228.148,85.012,226.35,77.879,224.553,70.747z M221.561,63.605
	c-0.504,2.612-2.219,3.2-5.365,3.2c-0.789,0-1.58,0-2.371,0c0-3.961,0-7.923,0-11.884c2.602-0.014,5.85-0.376,6.994,1.097
	c0.715,0.921,0.77,2.205,0.77,3.882C221.58,61.135,221.568,62.37,221.561,63.605z"/>
<path fill-rule="evenodd" clip-rule="evenodd" d="M194.295,48.106c-3.053,0-6.104,0-9.156,0c-2.5,14.647-5,29.3-7.498,43.948
	c2.301,0,4.604,0,6.904,0c0.938-6.193,1.877-12.389,2.816-18.582c1.512,0,3.021,0,4.533,0c0.918,6.193,1.838,12.389,2.756,18.582
	c2.332,0,4.664,0,6.994,0C199.195,77.406,196.744,62.754,194.295,48.106z M190.887,66.717c-0.828,0-1.66,0-2.49,0
	c0.416-2.786,0.832-5.571,1.246-8.357c0.416,2.775,0.83,5.552,1.244,8.327C190.887,66.697,190.887,66.707,190.887,66.717z"/>
</svg>
